HIERARCHY
ROOT Hips
{
  OFFSET 267.745 86.9975 -272.335
  CHANNELS 6 Xposition Yposition Zposition Zrotation Xrotation Yrotation
  JOINT LeftUpLeg
  {
    OFFSET 8.64259 1.95398 -2.38835
    CHANNELS 3 Zrotation Xrotation Yrotation
    JOINT LeftLeg
    {
      OFFSET 43.7702 0 0
      CHANNELS 3 Zrotation Xrotation Yrotation
      JOINT LeftFoot
      {
        OFFSET 40.6238 0 0
        CHANNELS 3 Zrotation Xrotation Yrotation
        JOINT LeftToeBase
        {
          OFFSET 12.7242 0 0
          CHANNELS 3 Zrotation Xrotation Yrotation
          End Site
          {
            OFFSET 0 0 0
          }
        }
      }
    }
  }
  JOINT RightUpLeg
  {
    OFFSET -8.2249 1.95398 -2.59336
    CHANNELS 3 Zrotation Xrotation Yrotation
    JOINT RightLeg
    {
      OFFSET 43.5653 0 0
      CHANNELS 3 Zrotation Xrotation Yrotation
      JOINT RightFoot
      {
        OFFSET 40.6238 0 0
        CHANNELS 3 Zrotation Xrotation Yrotation
        JOINT RightToeBase
        {
          OFFSET 12.7242 0 0
          CHANNELS 3 Zrotation Xrotation Yrotation
          End Site
          {
            OFFSET 0 0 0
          }
        }
      }
    }
  }
  JOINT Spine
  {
    OFFSET 0.165834 0.87714 6.61349
    CHANNELS 3 Zrotation Xrotation Yrotation
    JOINT Spine1
    {
      OFFSET 7.38963 1.71661e-005 0
      CHANNELS 3 Zrotation Xrotation Yrotation
      JOINT Spine2
      {
        OFFSET 11.9445 1.14441e-005 0
        CHANNELS 3 Zrotation Xrotation Yrotation
        JOINT Spine3
        {
          OFFSET 14.7254 4.19617e-005 0
          CHANNELS 3 Zrotation Xrotation Yrotation
          JOINT Spine4
          {
            OFFSET 10.9679 0 0
            CHANNELS 3 Zrotation Xrotation Yrotation
            JOINT RightShoulder
            {
              OFFSET 2.46616 -1.6653 3.69651
              CHANNELS 3 Zrotation Xrotation Yrotation
              JOINT RightArm
              {
                OFFSET 13.0012 0 0
                CHANNELS 3 Zrotation Xrotation Yrotation
                JOINT RightForeArm
                {
                  OFFSET 28.7848 1.52588e-005 0
                  CHANNELS 3 Zrotation Xrotation Yrotation
                  JOINT RightHand
                  {
                    OFFSET 26.5688 1.52588e-005 0
                    CHANNELS 3 Zrotation Xrotation Yrotation
                    End Site
                    {
                      OFFSET 0 0 0
                    }
                  }
                }
              }
            }
            JOINT LeftShoulder
            {
              OFFSET 2.38034 -1.29275 -3.7523
              CHANNELS 3 Zrotation Xrotation Yrotation
              JOINT LeftArm
              {
                OFFSET 16.3182 6.10352e-005 0
                CHANNELS 3 Zrotation Xrotation Yrotation
                JOINT LeftForeArm
                {
                  OFFSET 27.0901 0 0
                  CHANNELS 3 Zrotation Xrotation Yrotation
                  JOINT LeftHand
                  {
                    OFFSET 24.5451 1.52588e-005 0
                    CHANNELS 3 Zrotation Xrotation Yrotation
                    End Site
                    {
                      OFFSET 0 0 0
                    }
                  }
                }
              }
            }
            JOINT Neck
            {
              OFFSET 5.0226 -0.0266342 0
              CHANNELS 3 Zrotation Xrotation Yrotation
              JOINT Head
              {
                OFFSET 6.69364 2.86102e-005 0
                CHANNELS 3 Zrotation Xrotation Yrotation
                End Site
                {
                  OFFSET 0 0 0
                }
              }
            }
          }
        }
      }
    }
  }
}
MOTION
Frames:	15
Frame Time:	0.0416667
17.5669 98.7714 -297.647 109.899 -82.9827 109.144 -175.954 -0.603991 87.9881 -7.69717 16.0656 1.48924 59.8287 3.22052 10.3741 35.1379 -0.351604 -5.87296 174.692 3.36075 88.484 -18.2087 10.1463 -0.169066 61.9642 7.40273 11.0008 32.4109 -0.987165 1.53993 0.777642 6.80974 -90.2021 13.259 1.44575 -0.58594 1.58874 1.41856 -0.649005 -20.9528 1.555 -0.12424 -0.940114 1.55499 -0.124244 111.942 -44.9254 -65.9479 38.4836 -3.55276 2.111 -3.39837 -9.36858 -29.2471 -2.22693 -0.349052 17.53 -85.571 -53.8427 85.6506 -31.9582 1.35126 -14.9865 6.57363 47.2283 -13.0134 -5.37218 -0.103639 -3.86907 4.53872 -4.05611 0.689631 -18.1875 -4.12546 -0.0591914 
17.6703 98.7725 -297.727 110.514 -82.2848 109.62 -176.338 -0.795301 87.7303 -7.90896 16.5603 1.75251 59.7639 3.2764 10.4332 34.773 -0.266683 -6.24984 174.219 2.99401 88.1169 -18.3405 11.1342 0.113169 62.6668 7.21584 11.7538 30.7771 -0.62293 1.77163 0.640243 6.86368 -90.1777 13.1497 1.18524 -0.502654 1.47919 1.16196 -0.554346 -21.0602 1.28149 -0.123155 -1.04756 1.2815 -0.123163 111.216 -45.3478 -67.2257 38.3285 -2.82185 2.14946 -4.83213 -12.4131 -28.954 -3.30289 -0.576511 18.0861 -85.1749 -53.3886 86.1682 -32.503 1.16038 -15.0344 6.62658 46.7712 -12.8923 -5.03939 -0.080535 -4.80619 4.83742 -3.81454 0.516333 -18.5086 -3.87087 0.067614 
17.7297 98.7399 -297.823 112.527 -82.0185 111.489 -176.812 -1.11065 87.488 -8.27133 19.1314 2.05916 59.3815 3.41508 11.8731 35.6505 -0.57651 -3.36576 173.496 2.7419 87.5963 -18.8827 12.134 0.598776 64.0364 6.72755 13.2214 28.2705 -0.061107 1.99757 0.520604 6.96085 -90.1954 12.9545 0.939856 -0.504848 1.2838 0.916725 -0.545728 -21.2539 1.04813 -0.199018 -1.24126 1.04813 -0.199021 110.191 -45.3273 -68.9042 38.4295 -3.07532 1.74778 -5.268 -14.2085 -27.6869 -4.90822 -0.76889 14.5325 -84.4302 -53.9068 87.3112 -32.0636 1.37141 -15.6635 6.005 46.3453 -12.2623 -4.67917 -0.0784074 -4.9499 5.13659 -3.15584 0.628282 -18.4685 -3.29403 0.481565 
17.7045 98.6558 -297.893 113.214 -82.1351 112.389 -177.043 -1.13097 87.6247 -8.58828 20.6596 2.38193 59.3439 3.63117 12.4721 36.1733 -0.770517 -1.12848 173.284 2.99877 87.6351 -19.4679 12.1249 0.880626 64.4951 6.38869 13.8938 27.7828 0.127595 1.24223 0.406187 7.04211 -90.226 12.7914 0.698536 -0.53517 1.12048 0.674307 -0.5654 -21.4158 0.827082 -0.300482 -1.40319 0.82708 -0.300484 109.199 -45.9808 -70.6328 38.0364 -3.72365 1.16954 -5.42097 -15.9819 -26.151 -7.82229 -0.988446 10.1553 -83.7126 -53.7629 88.3362 -32.2511 1.32358 -15.7332 6.5044 45.7413 -12.8121 -4.89126 -0.0721282 -5.18986 5.8548 -2.63345 0.92627 -18.4705 -2.81395 0.304705 
17.5748 98.7495 -297.872 112.823 -82.4331 111.973 -176.994 -0.95956 87.6248 -8.50997 19.5685 2.33695 59.4342 3.61624 12.0105 35.9693 -0.739763 -1.23052 173.255 4.20403 87.6676 -21.1198 9.58106 1.09001 63.4498 6.39265 11.6158 36.7107 -1.96879 0.358835 0.300424 7.12291 -90.2213 12.6291 0.491227 -0.499689 0.958097 0.468755 -0.520822 -21.5774 0.618681 -0.328954 -1.56477 0.61869 -0.328949 108.014 -46.6578 -72.6543 37.6785 -4.12863 0.584451 -6.45618 -19.0868 -24.8563 -9.56339 -0.824184 5.06979 -82.8423 -53.3921 89.5696 -32.952 1.15493 -16.1788 6.98274 46.2908 -12.9438 -4.41006 -0.0772982 -5.11324 6.55498 -2.11781 -0.227062 -18.385 -2.30291 2.06107 
17.2842 98.754 -297.703 112.29 -83.086 111.807 -176.648 -0.717478 88.1566 -8.58439 19.4497 2.31516 59.5168 3.81972 12.1671 36.6223 -0.841562 -0.790037 173.492 5.0863 88.4253 -22.6476 8.83605 1.09012 64.3356 5.6315 11.3468 41.6135 -3.15959 0.459257 0.219375 7.18864 -90.271 12.4972 0.306918 -0.576611 0.826139 0.281246 -0.589565 -21.7086 0.466021 -0.457718 -1.69596 0.466024 -0.457715 106.605 -46.7939 -74.9539 38.0159 -4.19881 -0.0899027 -6.74848 -21.5405 -23.0936 -11.879 -0.668369 1.37442 -82.2111 -53.1788 90.4749 -32.9406 1.20871 -16.1395 7.24739 45.0732 -13.4881 -4.3296 -0.0937507 -4.19565 7.24167 -1.79051 -1.27091 -18.7424 -2.03281 4.07726 
16.9158 98.596 -297.201 110.199 -84.0803 109.934 -176.384 -0.440938 88.5371 -8.70168 18.5787 2.26938 59.898 4.40553 12.3574 37.0821 -0.878901 -1.17403 173.652 5.87219 88.8488 -23.6329 7.91204 1.16311 65.2454 4.99077 11.9249 40.4469 -2.93045 -2.30781 0.148427 7.23233 -90.3136 12.4091 0.145939 -0.642698 0.738036 0.117512 -0.648503 -21.7961 0.33235 -0.569132 -1.78348 0.332342 -0.569136 105.276 -47.0115 -77.123 38.0342 -4.71715 -0.397681 -6.86481 -22.7137 -22.3599 -13.1273 -0.578063 -0.0723907 -81.3405 -53.0413 91.7425 -32.8906 0.698711 -15.8631 8.09641 43.8387 -14.5852 -5.19128 -0.0928637 -4.29643 7.73361 -1.03268 -1.66388 -19.1656 -1.36007 5.16236 
16.3755 98.294 -296.194 114.99 -85.7744 114.659 -176.328 -0.899549 88.6738 -8.53485 17.6095 2.27566 59.4689 5.279 13.9879 39.2262 -1.1643 -0.945046 173.606 6.06713 88.8246 -24.7203 7.61174 1.1732 66.3596 4.73857 12.8353 39.6918 -2.69914 -0.144791 0.119292 7.30748 -90.3558 12.2586 0.0684891 -0.71776 0.587482 0.0368335 -0.720082 -21.9463 0.28103 -0.663994 -1.93363 0.281029 -0.664001 103.761 -47.0293 -79.5793 37.8081 -5.2673 -1.07342 -6.6037 -23.1493 -21.5995 -12.9287 -0.594716 0.169311 -80.1633 -53.2674 93.4774 -32.2409 0.500169 -14.8483 8.93213 41.6646 -16.3701 -5.54916 -0.068989 -5.11751 6.62179 0.127222 -1.03246 -18.3796 -0.3769 5.63125 
15.9366 97.4232 -295.071 127.079 -86.538 126.69 -178.657 1.79901 88.3487 -15.8475 15.2377 1.99403 58.3444 7.48453 16.1537 46.8362 -1.85638 3.78862 173.104 6.70505 88.417 -28.0449 6.66574 1.61139 68.0149 5.16528 13.0654 39.7614 -2.69494 1.74632 0.12525 7.50786 -90.4476 11.8575 0.0384603 -0.896716 0.186215 -0.00103729 -0.897554 -22.3467 0.306174 -0.84371 -2.33403 0.30617 -0.843714 102.873 -46.5153 -81.0099 37.2083 -6.19094 -2.61467 -4.67935 -20.4472 -20.3408 -12.192 -0.64692 1.01687 -79.3225 -52.8472 94.6986 -32.6587 0.166582 -14.0065 9.93954 39.6395 -18.0751 -5.32013 -0.0651385 -5.35655 6.96111 0.788275 -1.62787 -19.4698 0.111797 7.30499 
15.524 96.1856 -293.766 131.141 -85.9046 130.965 179.487 13.7358 88.4674 -39.8976 10.6485 3.24577 59.2061 6.16133 10.1938 52.683 -1.77854 9.74629 172.622 7.35486 88.3982 -33.1295 6.66583 2.0422 71.8634 5.35247 13.856 35.2919 -1.64789 0.893706 0.261897 7.83959 -90.5911 11.1943 0.246525 -1.2002 -0.477211 0.193468 -1.20989 -23.0088 0.595807 -1.07065 -2.99613 0.595815 -1.07065 102.151 -46.7298 -82.1879 36.235 -6.55938 -3.31318 -3.8926 -18.5568 -20.5984 -13.5016 -0.840218 2.09828 -79.2462 -52.2445 94.7955 -33.6756 -0.166632 -14.5288 10.6711 39.9387 -18.4786 -6.05601 -0.0427513 -5.86201 6.19745 0.105733 -3.44609 -17.1972 -0.325497 9.4674 
14.9519 96.1242 -291.115 135.304 -86.6429 134.159 -178.878 21.1549 86.8308 -46.0069 9.6043 1.89788 59.2995 5.93276 10.9324 51.1995 -1.81672 8.58401 172.801 5.49784 87.8312 -32.1911 8.51166 1.36756 72.8641 5.97292 15.0947 33.0719 -1.25675 3.90102 0.512853 7.97588 -90.5605 10.9252 0.761721 -1.18772 -0.746087 0.708719 -1.2201 -23.2803 1.08345 -0.903907 -3.26762 1.08346 -0.903905 101.592 -46.7874 -83.0972 35.2461 -7.4868 -4.18081 -2.28922 -15.6643 -19.9457 -15.2622 -0.778942 0.727211 -79.0471 -52.941 95.1062 -32.3638 0.358981 -12.2918 11.158 38.2205 -20.5955 -5.92011 -0.046419 -5.79497 5.50903 -0.119416 -2.63652 -18.0706 -0.539962 7.47523 
14.5316 96.4151 -287.901 129.741 -88.0489 126.562 -178.763 21.2128 85.0376 -26.5418 7.40937 0.361465 55.5769 2.70331 8.07204 49.4472 -1.95119 5.47443 172.687 3.87016 86.359 -29.7312 8.81641 0.583002 72.4342 5.28775 15.3961 36.2573 -1.94972 4.86065 0.683371 8.0369 -90.36 10.8047 1.19464 -0.826423 -0.865996 1.15711 -0.878206 -23.4048 1.38777 -0.429141 -3.39218 1.38778 -0.429138 101.605 -46.3817 -83.0801 35.3696 -9.2545 -4.85043 -4.14448 -16.9353 -23.1085 -15.0997 -0.942903 2.14974 -79.3043 -52.9855 94.729 -32.0221 -0.217322 -9.32492 11.9196 39.2055 -21.3839 -5.9952 -0.0291831 -6.29555 6.02078 -0.344536 -1.63222 -18.3289 -0.871937 6.72277 
14.2049 96.2847 -283.785 63.3637 -89.3602 59.6695 179.724 21.9212 85.626 -8.49263 7.89775 0.798453 51.3144 -3.03198 4.30331 41.8942 -1.47232 4.58496 172.416 1.86286 85.8638 -27.4325 9.19376 0.252825 72.2818 3.91647 16.7106 40.4374 -2.81511 3.75955 0.74902 8.07752 -90.2579 10.723 1.37276 -0.638848 -0.947419 1.34332 -0.698661 -23.4882 1.50128 -0.196657 -3.47554 1.50129 -0.196666 101.327 -46.2608 -83.5365 34.127 -12.836 -7.00197 -6.07394 -17.5339 -26.5328 -14.227 -0.939724 2.54474 -79.0036 -53.2391 95.1762 -32.2043 -1.95822 -6.92391 11.3409 39.3934 -19.8683 -6.14366 -0.0684894 -5.03931 7.45361 -0.0240746 -1.58535 -17.9333 -0.61454 7.49571 
14.0044 95.4283 -278.06 11.1806 -89.0325 8.78012 179.958 24.511 87.0943 -6.77127 10.964 1.17465 55.748 -2.14083 4.21672 39.6383 -1.31729 4.80983 172.137 -1.3592 86.6073 -26.482 9.4301 0.422482 70.0515 4.009 17.7995 47.0977 -4.02163 6.55065 0.784169 8.08789 -90.2824 10.7027 1.43157 -0.692091 -0.967679 1.39972 -0.754438 -23.5089 1.57337 -0.229755 -3.49625 1.57338 -0.229764 101.58 -46.495 -83.1207 33.221 -14.2357 -8.58501 -7.71342 -17.9841 -29.206 -14.9684 -0.965169 2.34938 -79.6418 -52.2608 94.2103 -33.2469 -4.45881 -3.66653 11.6386 39.9005 -18.9708 -6.77613 -0.0299399 -5.95421 9.14979 -0.24398 -3.05015 -18.9282 -0.727998 8.84631 
14.5598 94.4737 -270.761 -26.7938 -89.3115 -29.8304 179.501 23.7797 86.2056 -10.9933 12.7709 1.27074 50.7089 -4.25931 6.57089 38.5462 -1.18974 3.02218 170.645 -4.22886 83.6821 -29.1246 4.63928 0.0982144 64.4061 5.96757 20.8516 56.4741 -5.64691 7.31879 0.742732 8.22197 -90.0027 10.4336 1.47836 -0.135513 -1.23645 1.47096 -0.20047 -23.7784 1.45071 0.315154 -3.76579 1.45072 0.315157 101.71 -46.9996 -82.9036 33.2976 -13.4861 -8.92674 -8.49965 -18.5519 -29.8071 -15.2616 -0.997566 2.4483 -80.4248 -51.8255 93.0303 -32.8058 -5.78009 -3.05374 10.4949 41.9545 -16.2067 -6.93431 -0.0488713 -5.41821 11.8237 -0.0859353 -4.18943 -20.1181 -0.5503 10.4647 
